<svg width="600" height="60" viewBox="0 0 600 60" xmlns="http://www.w3.org/2000/svg"><defs><pattern id="satori_pattern_id_0" x="0" y="0" width="1" height="1" patternUnits="objectBoundingBox"><linearGradient id="satori_biid_0" x1="-0.044554455445544476" y1="0.44554455445544566" x2="1.0445544554455444" y2="0.5544554455445544" spreadMethod="pad"><stop offset="0%" stop-color="rgba(10, 10, 10, 1)"/><stop offset="50%" stop-color="rgba(25, 25, 25, 1)"/><stop offset="100%" stop-color="rgba(15, 15, 15, 1)"/></linearGradient><rect x="0" y="0" width="600" height="60" fill="url(#satori_biid_0)"/></pattern><clipPath id="satori_bc-id"><path x="0" y="0" width="600" height="60" d="M12,0 h576 a12,12 0 0 1 12,12 v36 a12,12 0 0 1 -12,12 h-576 a12,12 0 0 1 -12,-12 v-36 a12,12 0 0 1 12,-12"/></clipPath></defs><mask id="satori_ms-id-0" maskUnits="userSpaceOnUse"><rect x="0" y="0" width="600" height="60" fill="#fff"/><path x="0" y="0" width="600" height="60" fill="#000"  stroke-width="0" d="M12,0 h576 a12,12 0 0 1 12,12 v36 a12,12 0 0 1 -12,12 h-576 a12,12 0 0 1 -12,-12 v-36 a12,12 0 0 1 12,-12"/></mask><defs><filter id="satori_s-id-0" x="-42.66666666666667%" y="-426.6666666666667%" width="185.33333333333331%" height="953.3333333333334%"><feGaussianBlur stdDeviation="16" result="b"/><feFlood flood-color="rgba(0, 0, 0, 0.3)" in="SourceGraphic" result="f"/><feComposite in="f" in2="b" operator="in"/></filter></defs><g mask="url(#satori_ms-id-0)" filter="url(#satori_s-id-0)" opacity="1"><path x="0" y="8" width="600" height="60" fill="#fff" stroke="#fff" stroke-width="0" d="M12,8 h576 a12,12 0 0 1 12,12 v36 a12,12 0 0 1 -12,12 h-576 a12,12 0 0 1 -12,-12 v-36 a12,12 0 0 1 12,-12"/></g><clipPath id="satori_cp-id"><path x="0" y="0" width="600" height="60" d="M12,0 h576 a12,12 0 0 1 12,12 v36 a12,12 0 0 1 -12,12 h-576 a12,12 0 0 1 -12,-12 v-36 a12,12 0 0 1 12,-12"/></clipPath><mask id="satori_om-id"><rect x="1" y="1" width="598" height="58" fill="#fff"/><path width="600" height="60" fill="none" stroke="#000" stroke-width="2" d="M3.5150000000000006,3.5150000000000006 A12,12 0 0 1 12,0 h576 a12,12 0 0 1 12,12 v36 a12,12 0 0 1 -12,12 h-576 a12,12 0 0 1 -12,-12 v-36 A12,12 0 0 1 3.5150000000000006,3.5150000000000006"/></mask><path x="0" y="0" width="600" height="60" fill="#0a0a0a" d="M12,0 h576 a12,12 0 0 1 12,12 v36 a12,12 0 0 1 -12,12 h-576 a12,12 0 0 1 -12,-12 v-36 a12,12 0 0 1 12,-12"/><path x="0" y="0" width="600" height="60" fill="url(#satori_pattern_id_0)" d="M12,0 h576 a12,12 0 0 1 12,12 v36 a12,12 0 0 1 -12,12 h-576 a12,12 0 0 1 -12,-12 v-36 a12,12 0 0 1 12,-12"/><path width="600" height="60" clip-path="url(#satori_bc-id)" fill="none" stroke="rgba(255, 255, 255, 0.1)" stroke-width="2" d="M3.5150000000000006,3.5150000000000006 A12,12 0 0 1 12,0 h576 a12,12 0 0 1 12,12 v36 a12,12 0 0 1 -12,12 h-576 a12,12 0 0 1 -12,-12 v-36 A12,12 0 0 1 3.5150000000000006,3.5150000000000006"/><mask id="satori_ms-id-1" maskUnits="userSpaceOnUse"><rect x="0" y="0" width="600" height="60" fill="#000"/><path x="0" y="0" width="600" height="60" fill="#fff"  stroke-width="0" d="M12,0 h576 a12,12 0 0 1 12,12 v36 a12,12 0 0 1 -12,12 h-576 a12,12 0 0 1 -12,-12 v-36 a12,12 0 0 1 12,-12"/></mask><defs><filter id="satori_s-id-1" x="0%" y="-1.6666666666666667%" width="100%" height="101.66666666666666%"><feGaussianBlur stdDeviation="0" result="b"/><feFlood flood-color="rgba(255, 255, 255, 0.1)" in="SourceGraphic" result="f"/><feComposite in="f" in2="b" operator="out"/></filter></defs><g mask="url(#satori_ms-id-1)" filter="url(#satori_s-id-1)" opacity="1"><path x="0" y="1" width="600" height="60" fill="#fff" stroke="#fff" stroke-width="0" d="M12,1 h576 a12,12 0 0 1 12,12 v36 a12,12 0 0 1 -12,12 h-576 a12,12 0 0 1 -12,-12 v-36 a12,12 0 0 1 12,-12"/></g><defs><pattern id="satori_pattern_id-0_0" x="0" y="0" width="1" height="1" patternUnits="objectBoundingBox"><radialGradient id="satori_radial_id-0_0"><stop offset="0" stop-color="rgba(59, 130, 246, 0.15)"/><stop offset="0.5" stop-color="transparent"/><stop offset="1" stop-color="transparent"/></radialGradient><mask id="satori_mask_id-0_0"><rect x="0" y="0" width="598" height="58" fill="#fff"/></mask><rect x="0" y="0" width="598" height="58" fill="transparent"/><circle cx="299" cy="29" width="598" height="58" r="300.40306256761096" fill="url(#satori_radial_id-0_0)" mask="url(#satori_mask_id-0_0)"/></pattern></defs><mask id="satori_om-id-0"><rect x="1" y="1" width="598" height="58" fill="#fff" mask="url(#satori_om-id)"/></mask><rect x="1" y="1" width="598" height="58" fill="url(#satori_pattern_id-0_0)" clip-path="url(#satori_cp-id)" mask="url(#satori_om-id)"/><mask id="satori_om-id-1"><rect x="17" y="14" width="170" height="32" fill="#fff" mask="url(#satori_om-id)"/></mask><clipPath id="satori_cp-id-1-0" clip-path="url(#satori_cp-id)"><rect x="17" y="18" width="24" height="24"/></clipPath><mask id="satori_om-id-1-0"><rect x="17" y="18" width="24" height="24" fill="#fff" mask="url(#satori_om-id)"/></mask><image x="17" y="18" width="24" height="24" href="data:image/svg+xml;utf8,%3Csvg  xmlns=%22http://www.w3.org/2000/svg%22 width=%2224%22 height=%2224%22 viewBox=%220 0 800 800%22%3E%3Cdefs%3E%3Cfilter id=%22nnneon-filter%22 width=%22400%25%22 height=%22400%25%22 x=%22-100%25%22 y=%22-100%25%22 color-interpolation-filters=%22sRGB%22 filterUnits=%22objectBoundingBox%22 primitiveUnits=%22userSpaceOnUse%22%3E%3CfeGaussianBlur width=%22100%25%22 height=%22100%25%22 x=%220%25%22 y=%220%25%22 in=%22SourceGraphic%22 result=%22blur%22 stdDeviation=%2240 28%22%3E%3C/feGaussianBlur%3E%3C/filter%3E%3Cfilter id=%22nnneon-filter2%22 width=%22400%25%22 height=%22400%25%22 x=%22-100%25%22 y=%22-100%25%22 color-interpolation-filters=%22sRGB%22 filterUnits=%22objectBoundingBox%22 primitiveUnits=%22userSpaceOnUse%22%3E%3CfeGaussianBlur width=%22100%25%22 height=%22100%25%22 x=%220%25%22 y=%220%25%22 in=%22SourceGraphic%22 result=%22blur%22 stdDeviation=%2260 24%22%3E%3C/feGaussianBlur%3E%3C/filter%3E%3ClinearGradient id=%22nnneon-grad%22 x1=%2250%25%22 x2=%2250%25%22 y1=%220%25%22 y2=%22100%25%22%3E%3Cstop offset=%220%25%22 stop-color=%22hsl(217, 91%25, 70%25)%22%3E%3C/stop%3E%3Cstop offset=%2250%25%22 stop-color=%22hsl(205, 69%25, 65%25)%22%3E%3C/stop%3E%3Cstop offset=%22100%25%22 stop-color=%22hsl(217, 91%25, 80%25)%22%3E%3C/stop%3E%3C/linearGradient%3E%3C/defs%3E%3Cg fill=%22none%22 stroke=%22url(%23nnneon-grad)%22 stroke-width=%2236%22 transform=%22rotate(18 400 400)%22%3E%3Cpath d=%22M379.292 101.34a41.42 41.42 0 0 1 41.416.003l227.584 131.396A41.41 41.41 0 0 1 669 268.604v262.792a41.42 41.42 0 0 1-20.708 35.868L420.708 698.66a41.42 41.42 0 0 1-41.416-.003L151.708 567.262A41.41 41.41 0 0 1 131 531.396V268.604a41.42 41.42 0 0 1 20.708-35.868z%22 filter=%22url(%23nnneon-filter)%22 opacity=%220.8%22%3E%3C/path%3E%3Cpath d=%22M416.292 101.34a41.42 41.42 0 0 1 41.416.003l227.584 131.396A41.41 41.41 0 0 1 706 268.604v262.792a41.42 41.42 0 0 1-20.708 35.868L457.708 698.66a41.42 41.42 0 0 1-41.416-.003L188.708 567.262A41.41 41.41 0 0 1 168 531.396V268.604a41.42 41.42 0 0 1 20.708-35.868z%22 filter=%22url(%23nnneon-filter2)%22 opacity=%220.3%22%3E%3C/path%3E%3Cpath d=%22M342.292 101.34a41.42 41.42 0 0 1 41.416.003l227.584 131.396A41.41 41.41 0 0 1 632 268.604v262.792a41.42 41.42 0 0 1-20.708 35.868L383.708 698.66a41.42 41.42 0 0 1-41.416-.003L114.708 567.262A41.41 41.41 0 0 1 94 531.396V268.604a41.42 41.42 0 0 1 20.708-35.868z%22 filter=%22url(%23nnneon-filter2)%22 opacity=%220.2%22%3E%3C/path%3E%3Cpath d=%22M379.292 101.34a41.42 41.42 0 0 1 41.416.003l227.584 131.396A41.41 41.41 0 0 1 669 268.604v262.792a41.42 41.42 0 0 1-20.708 35.868L420.708 698.66a41.42 41.42 0 0 1-41.416-.003L151.708 567.262A41.41 41.41 0 0 1 131 531.396V268.604a41.42 41.42 0 0 1 20.708-35.868z%22 opacity=%220.9%22%3E%3C/path%3E%3C/g%3E%3C/svg%3E" preserveAspectRatio="none" clip-path="url(#satori_cp-id-1-0)" mask="url(#satori_om-id-1-0)"/><mask id="satori_om-id-1-0-0"><rect x="17" y="18" width="0" height="24" fill="#fff" mask="url(#satori_om-id)"/></mask><mask id="satori_om-id-1-0-0-0"><rect x="17" y="18" width="0" height="24" fill="#fff" mask="url(#satori_om-id)"/></mask><mask id="satori_om-id-1-0-0-0-0"><rect x="17" y="18" width="0" height="24" fill="#fff" mask="url(#satori_om-id)"/></mask><mask id="satori_om-id-1-0-0-1"><rect x="17" y="18" width="0" height="24" fill="#fff" mask="url(#satori_om-id)"/></mask><mask id="satori_om-id-1-0-0-1-0"><rect x="17" y="18" width="0" height="24" fill="#fff" mask="url(#satori_om-id)"/></mask><mask id="satori_om-id-1-0-0-2"><rect x="17" y="18" width="0" height="24" fill="#fff" mask="url(#satori_om-id)"/></mask><mask id="satori_om-id-1-0-0-2-0"><rect x="17" y="18" width="0" height="24" fill="#fff" mask="url(#satori_om-id)"/></mask><mask id="satori_om-id-1-0-0-2-1"><rect x="17" y="18" width="0" height="24" fill="#fff" mask="url(#satori_om-id)"/></mask><mask id="satori_om-id-1-0-0-2-2"><rect x="17" y="18" width="0" height="24" fill="#fff" mask="url(#satori_om-id)"/></mask><mask id="satori_om-id-1-0-1"><rect x="17" y="18" width="0" height="24" fill="#fff" mask="url(#satori_om-id)"/></mask><mask id="satori_om-id-1-0-1-0"><rect x="17" y="18" width="0" height="24" fill="#fff" mask="url(#satori_om-id)"/></mask><mask id="satori_om-id-1-0-1-1"><rect x="17" y="18" width="0" height="24" fill="#fff" mask="url(#satori_om-id)"/></mask><mask id="satori_om-id-1-0-1-2"><rect x="17" y="18" width="0" height="24" fill="#fff" mask="url(#satori_om-id)"/></mask><mask id="satori_om-id-1-0-1-3"><rect x="17" y="18" width="0" height="24" fill="#fff" mask="url(#satori_om-id)"/></mask><mask id="satori_om-id-1-1"><rect x="53" y="14" width="134" height="32" fill="#fff" mask="url(#satori_om-id)"/></mask><mask id="satori_om-id-1-1-0"><rect x="53" y="14" width="134" height="17" fill="#fff" mask="url(#satori_om-id)"/></mask><clipPath id="satori_bct-id-1-1-0-0" clip-path="url(#satori_cp-id)"><path d="M58.7 28L55.8 28L55.8 19.9L53.3 19.9L53.3 17.4L61.2 17.4L61.2 19.9L58.7 19.9L58.7 28ZM64.2 28.1L64.2 28.1Q63.2 28.1 62.6 27.6Q62.0 27.0 62.0 26.0L62.0 26.0Q62.0 23.8 65.2 23.5L65.2 23.5L66.2 23.4L66.2 22.9Q66.2 22.4 66.0 22.2Q65.7 22.0 65.1 22.0L65.1 22.0Q64.5 22.0 63.9 22.2Q63.3 22.3 62.8 22.6L62.8 22.6L62.3 20.7Q63.0 20.3 63.9 20.2Q64.8 20.0 65.7 20.0L65.7 20.0Q67.4 20.0 68.2 20.6Q69.0 21.3 69.0 22.7L69.0 22.7Q69.0 23.4 68.9 24.1Q68.9 24.9 68.9 25.5L68.9 25.5L68.9 26.0Q68.9 26.6 69.0 27.1Q69.0 27.6 69.1 28L69.1 28L66.4 28Q66.3 27.8 66.3 27.6Q66.3 27.3 66.3 27.1L66.3 27.1Q65.5 28.1 64.2 28.1ZM65.4 26.2L65.4 26.2Q65.7 26.2 65.9 26.1Q66.1 26.0 66.2 25.8L66.2 25.8L66.2 24.7L65.5 24.7Q65.1 24.8 64.9 25.0Q64.7 25.2 64.7 25.5L64.7 25.5Q64.7 25.8 64.9 26.0Q65.1 26.2 65.4 26.2ZM73.1 28L70.4 28L70.4 16.6L73.1 16.6L73.1 22.9L73.7 22.9L74.9 20.1L77.8 20.1L76.1 23.8L77.9 28L75.0 28L73.8 24.9L73.1 24.9L73.1 28ZM82.8 28.1L82.8 28.1Q80.8 28.1 79.7 27.1Q78.7 26.1 78.7 24.2L78.7 24.2Q78.7 23.3 78.9 22.5Q79.2 21.7 79.7 21.1Q80.2 20.6 80.9 20.3Q81.7 20.0 82.5 20.0L82.5 20.0Q83.4 20.0 84.0 20.3Q84.6 20.5 85.1 21.0Q85.5 21.4 85.7 22.0Q85.9 22.7 86.0 23.4L86.0 23.4Q86.0 23.8 86.0 24.1Q86.0 24.5 85.9 24.7L85.9 24.7L81.5 24.7Q81.5 25.5 82.0 25.8Q82.5 26.1 83.4 26.1L83.4 26.1Q83.8 26.1 84.3 26.0Q84.7 26.0 85.2 25.8L85.2 25.8L85.7 27.7Q85.2 27.9 84.5 28.0Q83.8 28.1 82.8 28.1ZM81.5 23.3L83.2 23.3Q83.2 22.6 83.0 22.2Q82.8 21.8 82.4 21.8L82.4 21.8Q82.0 21.8 81.7 22.2Q81.5 22.6 81.5 23.3L81.5 23.3ZM90.8 28.1L90.8 28.1Q89.9 28.1 89.2 27.9Q88.5 27.6 88.0 27.1Q87.5 26.5 87.2 25.8Q87.0 25.0 87.0 24.1L87.0 24.1Q87.0 23.1 87.2 22.4Q87.5 21.6 88.0 21.1Q88.5 20.5 89.2 20.3Q89.9 20.0 90.8 20.0L90.8 20.0Q91.7 20.0 92.4 20.3Q93.1 20.5 93.6 21.0Q94.1 21.5 94.4 22.3Q94.7 23.0 94.7 23.9L94.7 23.9Q94.7 24.9 94.4 25.7Q94.1 26.5 93.6 27.0Q93.1 27.6 92.4 27.9Q91.7 28.1 90.8 28.1ZM90.8 25.9L90.8 25.9Q91.8 25.9 91.8 24.1L91.8 24.1Q91.8 22.3 90.8 22.3L90.8 22.3Q89.8 22.3 89.8 24.1L89.8 24.1Q89.8 25.9 90.8 25.9ZM99.2 28.0L96.4 28.0L96.4 22.2L95.5 22.2L95.5 20.1L96.4 20.1L96.4 19.7Q96.4 18.9 96.6 18.3Q96.8 17.7 97.2 17.3Q97.6 16.9 98.2 16.7Q98.7 16.5 99.4 16.5L99.4 16.5Q100.1 16.5 100.5 16.5Q100.9 16.6 101.3 16.8L101.3 16.8L101.1 19.2Q100.8 18.9 100.0 18.9L100.0 18.9Q99.6 18.9 99.4 19.1Q99.1 19.3 99.1 19.9L99.1 19.9L99.1 20.1L100.7 20.1L100.7 22.2L99.2 22.2L99.2 28.0ZM105.2 28.0L102.4 28.0L102.4 22.2L101.5 22.2L101.5 20.1L102.4 20.1L102.4 19.7Q102.4 18.9 102.6 18.3Q102.8 17.7 103.2 17.3Q103.6 16.9 104.2 16.7Q104.7 16.5 105.4 16.5L105.4 16.5Q106.1 16.5 106.5 16.5Q106.9 16.6 107.3 16.8L107.3 16.8L107.1 19.2Q106.8 18.9 106.0 18.9L106.0 18.9Q105.6 18.9 105.4 19.1Q105.1 19.3 105.1 19.9L105.1 19.9L105.1 20.1L106.7 20.1L106.7 22.2L105.2 22.2L105.2 28.0Z "/></clipPath><defs><pattern id="satori_pattern_id-1-1-0-0_0" x="0" y="0" width="1" height="1" patternUnits="objectBoundingBox"><linearGradient id="satori_biid-1-1-0-0_0" x1="-0.0974652987326493" y1="0.31532890766445426" x2="1.0974652987326494" y2="0.6846710923355458" spreadMethod="pad"><stop offset="0%" stop-color="#f8fafc"/><stop offset="100%" stop-color="#cbd5e1"/></linearGradient><rect x="0" y="0" width="55" height="17" fill="url(#satori_biid-1-1-0-0_0)"/></pattern></defs><mask id="satori_om-id-1-1-0-0"><rect x="53" y="14" width="55" height="17" fill="#fff" mask="url(#satori_om-id)"/></mask><rect x="53" y="14" width="55" height="17" fill="url(#satori_pattern_id-1-1-0-0_0)" clip-path="url(#satori_bct-id-1-1-0-0)" mask="url(#satori_om-id)"/><g mask="url(#satori_om-id)" clip-path="url(#satori_cp-id)"><path fill="#f8fafc" d="M58.7 28L55.8 28L55.8 19.9L53.3 19.9L53.3 17.4L61.2 17.4L61.2 19.9L58.7 19.9L58.7 28ZM64.2 28.1L64.2 28.1Q63.2 28.1 62.6 27.6Q62.0 27.0 62.0 26.0L62.0 26.0Q62.0 23.8 65.2 23.5L65.2 23.5L66.2 23.4L66.2 22.9Q66.2 22.4 66.0 22.2Q65.7 22.0 65.1 22.0L65.1 22.0Q64.5 22.0 63.9 22.2Q63.3 22.3 62.8 22.6L62.8 22.6L62.3 20.7Q63.0 20.3 63.9 20.2Q64.8 20.0 65.7 20.0L65.7 20.0Q67.4 20.0 68.2 20.6Q69.0 21.3 69.0 22.7L69.0 22.7Q69.0 23.4 68.9 24.1Q68.9 24.9 68.9 25.5L68.9 25.5L68.9 26.0Q68.9 26.6 69.0 27.1Q69.0 27.6 69.1 28L69.1 28L66.4 28Q66.3 27.8 66.3 27.6Q66.3 27.3 66.3 27.1L66.3 27.1Q65.5 28.1 64.2 28.1ZM65.4 26.2L65.4 26.2Q65.7 26.2 65.9 26.1Q66.1 26.0 66.2 25.8L66.2 25.8L66.2 24.7L65.5 24.7Q65.1 24.8 64.9 25.0Q64.7 25.2 64.7 25.5L64.7 25.5Q64.7 25.8 64.9 26.0Q65.1 26.2 65.4 26.2ZM73.1 28L70.4 28L70.4 16.6L73.1 16.6L73.1 22.9L73.7 22.9L74.9 20.1L77.8 20.1L76.1 23.8L77.9 28L75.0 28L73.8 24.9L73.1 24.9L73.1 28ZM82.8 28.1L82.8 28.1Q80.8 28.1 79.7 27.1Q78.7 26.1 78.7 24.2L78.7 24.2Q78.7 23.3 78.9 22.5Q79.2 21.7 79.7 21.1Q80.2 20.6 80.9 20.3Q81.7 20.0 82.5 20.0L82.5 20.0Q83.4 20.0 84.0 20.3Q84.6 20.5 85.1 21.0Q85.5 21.4 85.7 22.0Q85.9 22.7 86.0 23.4L86.0 23.4Q86.0 23.8 86.0 24.1Q86.0 24.5 85.9 24.7L85.9 24.7L81.5 24.7Q81.5 25.5 82.0 25.8Q82.5 26.1 83.4 26.1L83.4 26.1Q83.8 26.1 84.3 26.0Q84.7 26.0 85.2 25.8L85.2 25.8L85.7 27.7Q85.2 27.9 84.5 28.0Q83.8 28.1 82.8 28.1ZM81.5 23.3L83.2 23.3Q83.2 22.6 83.0 22.2Q82.8 21.8 82.4 21.8L82.4 21.8Q82.0 21.8 81.7 22.2Q81.5 22.6 81.5 23.3L81.5 23.3ZM90.8 28.1L90.8 28.1Q89.9 28.1 89.2 27.9Q88.5 27.6 88.0 27.1Q87.5 26.5 87.2 25.8Q87.0 25.0 87.0 24.1L87.0 24.1Q87.0 23.1 87.2 22.4Q87.5 21.6 88.0 21.1Q88.5 20.5 89.2 20.3Q89.9 20.0 90.8 20.0L90.8 20.0Q91.7 20.0 92.4 20.3Q93.1 20.5 93.6 21.0Q94.1 21.5 94.4 22.3Q94.7 23.0 94.7 23.9L94.7 23.9Q94.7 24.9 94.4 25.7Q94.1 26.5 93.6 27.0Q93.1 27.6 92.4 27.9Q91.7 28.1 90.8 28.1ZM90.8 25.9L90.8 25.9Q91.8 25.9 91.8 24.1L91.8 24.1Q91.8 22.3 90.8 22.3L90.8 22.3Q89.8 22.3 89.8 24.1L89.8 24.1Q89.8 25.9 90.8 25.9ZM99.2 28.0L96.4 28.0L96.4 22.2L95.5 22.2L95.5 20.1L96.4 20.1L96.4 19.7Q96.4 18.9 96.6 18.3Q96.8 17.7 97.2 17.3Q97.6 16.9 98.2 16.7Q98.7 16.5 99.4 16.5L99.4 16.5Q100.1 16.5 100.5 16.5Q100.9 16.6 101.3 16.8L101.3 16.8L101.1 19.2Q100.8 18.9 100.0 18.9L100.0 18.9Q99.6 18.9 99.4 19.1Q99.1 19.3 99.1 19.9L99.1 19.9L99.1 20.1L100.7 20.1L100.7 22.2L99.2 22.2L99.2 28.0ZM105.2 28.0L102.4 28.0L102.4 22.2L101.5 22.2L101.5 20.1L102.4 20.1L102.4 19.7Q102.4 18.9 102.6 18.3Q102.8 17.7 103.2 17.3Q103.6 16.9 104.2 16.7Q104.7 16.5 105.4 16.5L105.4 16.5Q106.1 16.5 106.5 16.5Q106.9 16.6 107.3 16.8L107.3 16.8L107.1 19.2Q106.8 18.9 106.0 18.9L106.0 18.9Q105.6 18.9 105.4 19.1Q105.1 19.3 105.1 19.9L105.1 19.9L105.1 20.1L106.7 20.1L106.7 22.2L105.2 22.2L105.2 28.0Z "/></g><defs><clipPath id="satori_bc-id-1-1-0-1" clip-path="url(#satori_cp-id)"><path x="116" y="15" width="44" height="16" d="M122,15 h32 a6,6 0 0 1 6,6 v4 a6,6 0 0 1 -6,6 h-32 a6,6 0 0 1 -6,-6 v-4 a6,6 0 0 1 6,-6"/></clipPath></defs><mask id="satori_om-id-1-1-0-1"><rect x="117" y="16" width="42" height="14" fill="#fff" mask="url(#satori_om-id)"/><path width="44" height="16" fill="none" stroke="#000" stroke-width="2" d="M117.757,16.756999999999998 A6,6 0 0 1 122,15 h32 a6,6 0 0 1 6,6 v4 a6,6 0 0 1 -6,6 h-32 a6,6 0 0 1 -6,-6 v-4 A6,6 0 0 1 117.757,16.756999999999998"/></mask><path x="116" y="15" width="44" height="16" fill="rgba(34, 197, 94, 0.15)" d="M122,15 h32 a6,6 0 0 1 6,6 v4 a6,6 0 0 1 -6,6 h-32 a6,6 0 0 1 -6,-6 v-4 a6,6 0 0 1 6,-6" clip-path="url(#satori_cp-id)" mask="url(#satori_om-id)"/><path width="44" height="16" clip-path="url(#satori_bc-id-1-1-0-1)" fill="none" stroke="rgba(34, 197, 94, 0.3)" stroke-width="2" d="M117.757,16.756999999999998 A6,6 0 0 1 122,15 h32 a6,6 0 0 1 6,6 v4 a6,6 0 0 1 -6,6 h-32 a6,6 0 0 1 -6,-6 v-4 A6,6 0 0 1 117.757,16.756999999999998"/><mask id="satori_om-id-1-1-0-1-0"><rect x="123" y="20" width="6" height="6" fill="#fff" mask="url(#satori_om-id)"/></mask><path x="123" y="20" width="6" height="6" fill="#22c55e" d="M126,20 h0 a3,3 0 0 1 3,3 v0 a3,3 0 0 1 -3,3 h0 a3,3 0 0 1 -3,-3 v0 a3,3 0 0 1 3,-3" clip-path="url(#satori_cp-id)" mask="url(#satori_om-id)"/><mask id="satori_om-id-1-1-0-1-1"><rect x="133" y="18" width="20" height="10" fill="#fff" mask="url(#satori_om-id)"/></mask><g mask="url(#satori_om-id)" clip-path="url(#satori_cp-id)"><path fill="#22c55e" d="M135.2 19.6L135.2 24.5L137.1 24.5L137.1 26L133.4 26L133.4 19.6L135.2 19.6ZM140.0 26L138.3 26L138.3 19.6L140.0 19.6L140.0 26ZM144.9 26L142.7 26L141.0 19.6L142.9 19.6L143.9 23.9L144.9 19.6L146.7 19.6L144.9 26ZM151.6 26L147.7 26L147.7 19.6L151.5 19.6L151.5 21.1L149.4 21.1L149.4 22.1L151.3 22.1L151.3 23.5L149.4 23.5L149.4 24.5L151.6 24.5L151.6 26Z "/></g><mask id="satori_om-id-1-1-1"><rect x="53" y="33" width="134" height="13" fill="#fff" mask="url(#satori_om-id)"/></mask><g mask="url(#satori_om-id)" clip-path="url(#satori_cp-id)"><path fill="#94a3b8" d="M55.4 43L53.1 43L55.2 35.2L58.3 35.2L60.3 43L58.0 43L57.7 41.4L55.8 41.4L55.4 43ZM56.8 37.1L56.1 39.9L57.3 39.9L56.8 37.1ZM63.4 43L61.3 43L61.3 35.2L63.4 35.2L63.4 43Z M70.8 35.0L70.8 35.0Q71.4 35.0 72.0 35.2Q72.5 35.4 72.9 35.9Q73.3 36.3 73.6 37.0Q73.8 37.7 73.8 38.8L73.8 38.8Q73.8 39.8 73.6 40.5Q73.3 41.3 72.9 41.7Q72.5 42.2 72.0 42.4Q71.4 42.6 70.8 42.6L70.8 42.6Q70.2 42.6 69.6 42.4Q69.1 42.2 68.7 41.7Q68.3 41.3 68.0 40.5Q67.8 39.8 67.8 38.8L67.8 38.8Q67.8 37.7 68.0 37.0Q68.3 36.3 68.7 35.9Q69.1 35.4 69.6 35.2Q70.2 35.0 70.8 35.0ZM74.4 34.8L76.4 34.8L76.4 38.0L77.7 38.0L77.7 40.0L76.4 40.0L76.4 44.2L74.4 44.2L74.4 34.8ZM70.8 36.7L70.8 36.7Q70.3 36.7 70.0 37.2Q69.7 37.7 69.7 38.8L69.7 38.8Q69.7 39.8 70.0 40.4Q70.3 40.9 70.8 40.9L70.8 40.9Q71.3 40.9 71.6 40.4Q71.9 39.8 71.9 38.8L71.9 38.8Q71.9 37.7 71.6 37.2Q71.3 36.7 70.8 36.7ZM78.8 35.1L84.2 35.1L84.2 36.8L80.9 36.8L80.9 38.1L84.0 38.1L84.0 39.6L80.9 39.6L80.9 41.0L81.0 41.0Q81.3 41.0 81.8 41.0Q82.2 41.0 82.7 40.9Q83.1 40.9 83.6 40.8Q84.0 40.8 84.4 40.7L84.4 40.7L84.6 42.3Q83.7 42.6 82.6 42.6Q81.5 42.7 80.3 42.7L80.3 42.7L78.8 42.7L78.8 35.1ZM85.4 34.8L87.5 34.8L87.5 44.2L85.4 44.2L85.4 34.8ZM90.2 34.6L97.3 34.6L97.3 35.8Q97.3 36.0 97.3 36.3Q97.3 36.6 97.3 36.9Q97.3 37.2 97.2 37.6Q97.2 37.9 97.2 38.3L97.2 38.3L98.5 38.3L98.5 39.7L89.2 39.7L89.2 38.3L95.2 38.3Q95.2 38.1 95.2 38.0Q95.3 37.8 95.3 37.7L95.3 37.7L90.3 37.7L90.3 36.5L95.3 36.5L95.3 36.0L90.2 36.0L90.2 34.6ZM90.2 40.2L97.5 40.2L97.5 42.9L92.2 42.9L92.2 43.4L97.6 43.4L97.6 44.7L90.2 44.7L90.2 41.9L95.5 41.9L95.5 41.5L90.2 41.5L90.2 40.2ZM105.3 34.5L101.4 44.0L99.5 44.0L103.4 34.5L105.3 34.5ZM111.6 40.4L111.6 40.4Q113.4 40.4 114.3 41.0Q115.2 41.6 115.2 42.7L115.2 42.7Q115.2 43.7 114.3 44.3Q113.4 44.9 111.6 44.9L111.6 44.9Q110.6 44.9 110.0 44.8Q109.3 44.6 108.8 44.3Q108.4 44.0 108.2 43.6Q108.0 43.2 108.0 42.7L108.0 42.7Q108.0 42.2 108.2 41.8Q108.4 41.3 108.8 41.0Q109.3 40.7 110.0 40.6Q110.6 40.4 111.6 40.4ZM106.5 34.9L112.0 34.9L112.0 36.5L110.4 36.5L110.4 36.8Q110.4 37.1 110.3 37.4L110.3 37.4Q110.5 37.6 110.8 37.7Q111.0 37.9 111.3 38.0Q111.6 38.1 111.9 38.2Q112.1 38.3 112.3 38.3L112.3 38.3L111.8 40.1Q111.1 39.9 110.5 39.5Q110.0 39.2 109.5 38.8L109.5 38.8Q109.4 38.9 109.3 39.0Q109.2 39.1 109.1 39.2L109.1 39.2Q108.8 39.4 108.5 39.6Q108.2 39.9 107.8 40.0Q107.5 40.2 107.3 40.3Q107.0 40.4 106.8 40.4L106.8 40.4L106.2 38.6Q106.5 38.5 106.8 38.4Q107.2 38.3 107.5 38.1L107.5 38.1Q108.0 37.8 108.2 37.4Q108.4 37.1 108.4 36.7L108.4 36.7L108.4 36.5L106.5 36.5L106.5 34.9ZM113.3 34.8L115.3 34.8L115.3 40.3L113.3 40.3L113.3 38.2L112.2 38.2L112.2 36.3L113.3 36.3L113.3 34.8ZM111.6 41.9L111.6 41.9Q110.9 41.9 110.5 42.1Q110.0 42.2 110.0 42.7L110.0 42.7Q110.0 43.1 110.5 43.2Q110.9 43.4 111.6 43.4L111.6 43.4Q112.3 43.4 112.7 43.2Q113.1 43.1 113.1 42.7L113.1 42.7Q113.1 42.2 112.7 42.1Q112.3 41.9 111.6 41.9ZM116.9 42.0L120.5 42.0L120.5 40.5L117.8 40.5L117.8 35.0L119.8 35.0L119.8 36.1L123.4 36.1L123.4 35.0L125.4 35.0L125.4 40.5L122.7 40.5L122.7 42.0L126.3 42.0L126.3 43.7L116.9 43.7L116.9 42.0ZM119.8 38.8L123.4 38.8L123.4 37.7L119.8 37.7L119.8 38.8Z M135.4 34.8L137.3 34.8L137.3 44.1L135.4 44.1L135.4 39.6L134.4 39.6Q134.3 40.1 134.1 40.6Q133.9 41.0 133.6 41.4L133.6 41.4Q133.1 41.9 132.4 42.3Q131.7 42.6 130.9 42.7L130.9 42.7L130.5 40.9Q130.7 40.8 130.9 40.8Q131.1 40.7 131.3 40.6Q131.5 40.5 131.7 40.4Q131.9 40.2 132.1 40.1L132.1 40.1Q132.5 39.6 132.6 39.0Q132.7 38.4 132.7 37.7L132.7 37.7L132.7 36.9L130.8 36.9L130.8 35.2L134.6 35.2L134.6 37.6L135.4 37.6L135.4 34.8ZM137.9 34.8L139.8 34.8L139.8 44.2L137.9 44.2L137.9 34.8ZM144.7 40.4L144.4 40.9Q144.2 41.1 144.0 41.4Q143.7 41.7 143.4 41.9Q143.1 42.2 142.8 42.4Q142.5 42.7 142.2 42.8L142.2 42.8L141.2 41.0Q141.3 41.0 141.4 40.9Q141.6 40.8 141.8 40.6Q142.0 40.5 142.1 40.4Q142.3 40.2 142.5 40.1L142.5 40.1Q142.9 39.6 143.2 39.0Q143.4 38.4 143.4 37.5L143.4 37.5L143.4 35.0L145.4 35.0L145.4 37.5Q145.4 38.1 145.3 38.6L145.3 38.6Q145.5 38.8 145.8 39.1Q146.0 39.4 146.4 39.7Q146.7 40.0 147.1 40.2Q147.5 40.5 147.8 40.6L147.8 40.6L147.0 42.5Q146.7 42.4 146.4 42.1Q146.0 41.9 145.7 41.7Q145.4 41.4 145.2 41.1Q144.9 40.8 144.7 40.4L144.7 40.4ZM148.3 34.8L150.4 34.8L150.4 44.2L148.3 44.2L148.3 34.8Z M160.3 37.1L162.1 37.1L162.1 34.8L164.2 34.8L164.2 44.2L162.1 44.2L162.1 39.1L160.3 39.1L160.3 37.1ZM158.0 40.8L158.0 40.8Q157.8 41.1 157.6 41.3Q157.3 41.6 157.0 41.9Q156.7 42.2 156.4 42.4Q156.1 42.6 155.9 42.8L155.9 42.8L154.8 41.0Q154.9 40.9 155.1 40.8Q155.2 40.7 155.4 40.6Q155.6 40.5 155.8 40.3Q155.9 40.2 156.1 40.0L156.1 40.0Q156.3 39.8 156.5 39.5Q156.7 39.3 156.8 38.9Q156.9 38.6 157 38.3Q157.1 37.9 157.1 37.4L157.1 37.4L157.1 35.0L159.1 35.0L159.1 37.4Q159.1 37.7 159.1 38.0Q159.0 38.3 159.0 38.6L159.0 38.6Q159.1 38.9 159.4 39.1Q159.6 39.4 159.9 39.7Q160.2 40.0 160.6 40.2Q161.0 40.5 161.3 40.7L161.3 40.7L160.5 42.5Q159.8 42.2 159.2 41.6Q158.6 41.1 158.2 40.5L158.2 40.5Q158.2 40.6 158.1 40.7Q158.1 40.8 158.0 40.8ZM166.2 35.1L168.1 35.1L168.1 36.8L169.9 36.8L169.9 35.1L171.8 35.1L171.8 42.4L166.2 42.4L166.2 35.1ZM172.8 34.8L174.8 34.8L174.8 44.2L172.8 44.2L172.8 34.8ZM168.1 40.7L169.9 40.7L169.9 38.5L168.1 38.5L168.1 40.7ZM180.0 35.0L182.2 35.0L182.2 36.0Q182.2 36.5 182.0 37.1L182.0 37.1Q182.3 37.4 182.7 37.6Q183.1 37.9 183.5 38.1Q183.9 38.3 184.3 38.5Q184.8 38.7 185.2 38.8L185.2 38.8L184.6 40.6Q184.2 40.4 183.7 40.3Q183.2 40.1 182.8 39.8Q182.4 39.6 182.0 39.3Q181.5 39.0 181.2 38.6L181.2 38.6Q181.0 39.0 180.6 39.2L180.6 39.2Q179.9 39.9 179.1 40.3Q178.4 40.6 177.7 40.8L177.7 40.8L177.1 39.0Q177.2 38.9 177.4 38.8Q177.7 38.8 177.9 38.7Q178.1 38.5 178.4 38.4Q178.6 38.3 178.9 38.1L178.9 38.1Q179.5 37.7 179.8 37.2Q180.0 36.7 180.0 36.1L180.0 36.1L180.0 35.0ZM176.5 41.8L185.8 41.8L185.8 43.5L176.5 43.5L176.5 41.8Z "/></g><mask id="satori_om-id-2"><rect x="481" y="16" width="102" height="28" fill="#fff" mask="url(#satori_om-id)"/></mask><mask id="satori_om-id-2-0"><rect x="481" y="16" width="102" height="14" fill="#fff" mask="url(#satori_om-id)"/></mask><defs><clipPath id="satori_bc-id-2-0-0" clip-path="url(#satori_cp-id)"><path x="481" y="16" width="39" height="14" d="M485,16 h31 a4,4 0 0 1 4,4 v6 a4,4 0 0 1 -4,4 h-31 a4,4 0 0 1 -4,-4 v-6 a4,4 0 0 1 4,-4"/></clipPath></defs><mask id="satori_om-id-2-0-0"><rect x="482" y="17" width="37" height="12" fill="#fff" mask="url(#satori_om-id)"/><path width="39" height="14" fill="none" stroke="#000" stroke-width="2" d="M482.172,17.172 A4,4 0 0 1 485,16 h31 a4,4 0 0 1 4,4 v6 a4,4 0 0 1 -4,4 h-31 a4,4 0 0 1 -4,-4 v-6 A4,4 0 0 1 482.172,17.172"/></mask><path x="481" y="16" width="39" height="14" fill="rgba(59, 130, 246, 0.1)" d="M485,16 h31 a4,4 0 0 1 4,4 v6 a4,4 0 0 1 -4,4 h-31 a4,4 0 0 1 -4,-4 v-6 a4,4 0 0 1 4,-4" clip-path="url(#satori_cp-id)" mask="url(#satori_om-id)"/><path width="39" height="14" clip-path="url(#satori_bc-id-2-0-0)" fill="none" stroke="rgba(59, 130, 246, 0.2)" stroke-width="2" d="M482.172,17.172 A4,4 0 0 1 485,16 h31 a4,4 0 0 1 4,4 v6 a4,4 0 0 1 -4,4 h-31 a4,4 0 0 1 -4,-4 v-6 A4,4 0 0 1 482.172,17.172"/><mask id="satori_om-id-2-0-0-0"><rect x="486" y="19" width="29" height="8" fill="#fff" mask="url(#satori_om-id)"/></mask><g mask="url(#satori_om-id)" clip-path="url(#satori_cp-id)"><path fill="#cbd5e1" d="M487.6 25L486.4 25L486.4 20.0L487.9 20.0L489.3 22.6L489.3 20.0L490.6 20.0L490.6 25L489.2 25L487.6 22.1L487.6 25ZM494.8 25L491.8 25L491.8 20.0L494.7 20.0L494.7 21.2L493.1 21.2L493.1 22.0L494.5 22.0L494.5 23.0L493.1 23.0L493.1 23.8L494.8 23.8L494.8 25ZM497.0 25L495.6 25L497.1 22.4L495.7 20.0L497.2 20.0L497.9 21.4L498.6 20.0L500.0 20.0L498.7 22.4L500.2 25L498.7 25L497.9 23.5L497.0 25ZM503.4 25L502.0 25L502.0 21.2L500.9 21.2L500.9 20.0L504.6 20.0L504.6 21.2L503.4 21.2L503.4 25ZM506.3 25.6L506.3 25.6Q505.9 25.6 505.7 25.4Q505.5 25.2 505.5 24.9L505.5 24.9Q505.5 24.5 505.7 24.3Q505.9 24.1 506.3 24.1L506.3 24.1Q506.6 24.1 506.8 24.3Q507.0 24.5 507.0 24.9L507.0 24.9Q507.0 25.2 506.8 25.4Q506.6 25.6 506.3 25.6ZM507.9 26.6L507.7 25.4Q507.9 25.4 508.0 25.4Q508.0 25.3 508.1 25.3L508.1 25.3Q508.2 25.2 508.2 25.0Q508.3 24.7 508.3 24.4L508.3 24.4L508.3 20.0L509.6 20.0L509.6 24.5Q509.6 25.1 509.5 25.5Q509.4 25.9 509.1 26.2L509.1 26.2Q508.8 26.4 508.5 26.5Q508.2 26.6 507.9 26.6L507.9 26.6ZM512.2 25.1L512.2 25.1Q511.8 25.1 511.4 25.0Q511.0 24.9 510.7 24.8L510.7 24.8L511.1 23.6Q511.4 23.8 511.6 23.9Q511.9 23.9 512.2 23.9L512.2 23.9Q512.8 23.9 512.8 23.6L512.8 23.6Q512.8 23.3 512.4 23.2L512.4 23.2L511.9 23.0Q511.4 22.8 511.1 22.5Q510.9 22.2 510.9 21.6L510.9 21.6Q510.9 20.8 511.3 20.4Q511.8 20.0 512.7 20.0L512.7 20.0Q513.1 20.0 513.4 20.0Q513.8 20.1 514.1 20.2L514.1 20.2L513.7 21.3Q513.2 21.1 512.7 21.1L512.7 21.1Q512.2 21.1 512.2 21.4L512.2 21.4Q512.2 21.7 512.6 21.8L512.6 21.8L513.1 22.0Q513.4 22.1 513.6 22.2Q513.8 22.3 513.9 22.5Q514.1 22.6 514.1 22.9Q514.2 23.1 514.2 23.4L514.2 23.4Q514.2 24.2 513.7 24.6Q513.2 25.1 512.2 25.1Z "/></g><defs><clipPath id="satori_bc-id-2-0-1" clip-path="url(#satori_cp-id)"><path x="526" y="16" width="57" height="14" d="M530,16 h49 a4,4 0 0 1 4,4 v6 a4,4 0 0 1 -4,4 h-49 a4,4 0 0 1 -4,-4 v-6 a4,4 0 0 1 4,-4"/></clipPath></defs><mask id="satori_om-id-2-0-1"><rect x="527" y="17" width="55" height="12" fill="#fff" mask="url(#satori_om-id)"/><path width="57" height="14" fill="none" stroke="#000" stroke-width="2" d="M527.172,17.172 A4,4 0 0 1 530,16 h49 a4,4 0 0 1 4,4 v6 a4,4 0 0 1 -4,4 h-49 a4,4 0 0 1 -4,-4 v-6 A4,4 0 0 1 527.172,17.172"/></mask><path x="526" y="16" width="57" height="14" fill="rgba(249, 115, 22, 0.1)" d="M530,16 h49 a4,4 0 0 1 4,4 v6 a4,4 0 0 1 -4,4 h-49 a4,4 0 0 1 -4,-4 v-6 a4,4 0 0 1 4,-4" clip-path="url(#satori_cp-id)" mask="url(#satori_om-id)"/><path width="57" height="14" clip-path="url(#satori_bc-id-2-0-1)" fill="none" stroke="rgba(249, 115, 22, 0.2)" stroke-width="2" d="M527.172,17.172 A4,4 0 0 1 530,16 h49 a4,4 0 0 1 4,4 v6 a4,4 0 0 1 -4,4 h-49 a4,4 0 0 1 -4,-4 v-6 A4,4 0 0 1 527.172,17.172"/><mask id="satori_om-id-2-0-1-0"><rect x="531" y="19" width="47" height="8" fill="#fff" mask="url(#satori_om-id)"/></mask><g mask="url(#satori_om-id)" clip-path="url(#satori_cp-id)"><path fill="#fed7aa" d="M533.4 25.1L533.4 25.1Q532.9 25.1 532.5 24.9Q532.0 24.7 531.8 24.4Q531.5 24.1 531.4 23.6Q531.2 23.2 531.2 22.6L531.2 22.6Q531.2 22.0 531.4 21.5Q531.5 21.0 531.8 20.7Q532.1 20.3 532.6 20.1Q533.0 20.0 533.6 20.0L533.6 20.0Q533.9 20.0 534.3 20.0Q534.6 20.1 534.9 20.2L534.9 20.2L534.4 21.4Q534.2 21.3 534.1 21.3Q533.9 21.2 533.7 21.2L533.7 21.2Q533.1 21.2 532.9 21.6Q532.6 21.9 532.6 22.6L532.6 22.6Q532.6 23.2 532.9 23.5Q533.1 23.8 533.6 23.8L533.6 23.8Q533.8 23.8 534.1 23.7Q534.3 23.6 534.5 23.5L534.5 23.5L534.9 24.6Q534.6 24.8 534.2 25.0Q533.9 25.1 533.4 25.1ZM537.3 20.0L537.3 23.8L538.8 23.8L538.8 25L536.0 25L536.0 20.0L537.3 20.0ZM541.9 25.1L541.9 25.1Q541.4 25.1 541.0 24.9Q540.6 24.7 540.3 24.4Q540.0 24.1 539.9 23.6Q539.7 23.1 539.7 22.6L539.7 22.6Q539.7 21.9 539.9 21.5Q540.0 21.0 540.3 20.7Q540.6 20.3 541.0 20.1Q541.5 20.0 542.0 20.0L542.0 20.0Q542.5 20.0 543.0 20.1Q543.4 20.3 543.7 20.6Q543.9 21.0 544.1 21.4Q544.2 21.9 544.2 22.5L544.2 22.5Q544.2 23.1 544.1 23.6Q543.9 24.0 543.6 24.4Q543.3 24.7 542.9 24.9Q542.5 25.1 541.9 25.1ZM542.0 23.8L542.0 23.8Q542.9 23.8 542.9 22.5L542.9 22.5Q542.9 21.2 542.0 21.2L542.0 21.2Q541.1 21.2 541.1 22.5L541.1 22.5Q541.1 23.8 542.0 23.8ZM547.3 25.1L547.3 25.1Q545.3 25.1 545.3 23.1L545.3 23.1L545.3 20.0L546.7 20.0L546.7 23.1Q546.7 23.5 546.8 23.7Q547.0 23.9 547.3 23.9L547.3 23.9Q547.7 23.9 547.8 23.7Q548.0 23.5 548.0 23.1L548.0 23.1L548.0 20.0L549.3 20.0L549.3 23.1Q549.3 25.1 547.3 25.1ZM552.3 25L550.5 25L550.5 20.0L552.3 20.0Q553.5 20.0 554.1 20.7Q554.7 21.3 554.7 22.5L554.7 22.5Q554.7 23.7 554.1 24.3Q553.5 25 552.3 25L552.3 25ZM551.9 21.2L551.9 23.9L552.3 23.9Q553.3 23.9 553.3 22.5L553.3 22.5Q553.3 21.2 552.3 21.2L552.3 21.2L551.9 21.2ZM557.1 25L555.8 25L555.8 20.0L558.6 20.0L558.6 21.2L557.1 21.2L557.1 22.1L558.5 22.1L558.5 23.1L557.1 23.1L557.1 25ZM561.1 20.0L561.1 23.8L562.6 23.8L562.6 25L559.7 25L559.7 20.0L561.1 20.0ZM564.8 25L563.3 25L564.7 20.0L566.6 20.0L567.9 25L566.4 25L566.2 24.0L565.0 24.0L564.8 25ZM565.6 21.3L565.2 23.0L566.0 23.0L565.6 21.3ZM570.2 25L568.8 25L568.8 20.0L571.0 20.0Q571.7 20.0 572.1 20.4Q572.5 20.7 572.5 21.4L572.5 21.4Q572.5 21.9 572.2 22.2Q572.0 22.5 571.5 22.6L571.5 22.6Q571.8 22.7 571.9 22.9Q572.1 23.1 572.3 23.5L572.3 23.5L572.8 25L571.3 25L570.9 23.8Q570.8 23.5 570.7 23.4Q570.6 23.3 570.4 23.3L570.4 23.3L570.2 23.3L570.2 25ZM570.2 21.2L570.2 22.1L570.6 22.1Q570.9 22.1 571.0 22.0Q571.1 21.9 571.1 21.6L571.1 21.6Q571.1 21.4 571.0 21.3Q570.8 21.2 570.5 21.2L570.5 21.2L570.2 21.2ZM576.7 25L573.7 25L573.7 20.0L576.6 20.0L576.6 21.2L575.0 21.2L575.0 22.0L576.5 22.0L576.5 23.0L575.0 23.0L575.0 23.8L576.7 23.8L576.7 25Z "/></g><mask id="satori_om-id-2-1"><rect x="514" y="34" width="69" height="10" fill="#fff" mask="url(#satori_om-id)"/></mask><g mask="url(#satori_om-id)" clip-path="url(#satori_cp-id)"><path fill="#475569" d="M515.6 42.1L515.6 42.1Q515.0 42.1 514.7 41.7Q514.3 41.4 514.3 40.8L514.3 40.8Q514.3 39.5 516.2 39.3L516.2 39.3L516.8 39.2L516.8 38.9Q516.8 38.7 516.7 38.5Q516.5 38.4 516.2 38.4L516.2 38.4Q515.8 38.4 515.4 38.5Q515.1 38.6 514.8 38.8L514.8 38.8L514.5 37.6Q514.9 37.4 515.4 37.3Q516.0 37.2 516.5 37.2L516.5 37.2Q517.5 37.2 518.0 37.6Q518.5 38.0 518.5 38.8L518.5 38.8Q518.5 39.2 518.5 39.7Q518.5 40.1 518.5 40.5L518.5 40.5L518.5 40.8Q518.5 41.2 518.5 41.5Q518.5 41.8 518.6 42L518.6 42L517.0 42Q516.9 41.9 516.9 41.7Q516.9 41.6 516.9 41.5L516.9 41.5Q516.4 42.1 515.6 42.1ZM516.4 40.9L516.4 40.9Q516.5 40.9 516.6 40.8Q516.8 40.8 516.8 40.7L516.8 40.7L516.8 40.0L516.4 40.0Q516.2 40.1 516.1 40.2Q515.9 40.3 515.9 40.5L515.9 40.5Q515.9 40.7 516.0 40.8Q516.2 40.9 516.4 40.9ZM521.5 42L519.8 42L519.8 37.3L521.5 37.3L521.5 42ZM520.7 36.8L520.7 36.8Q520.3 36.8 520.0 36.6Q519.7 36.3 519.7 35.9L519.7 35.9Q519.7 35.4 520.0 35.2Q520.3 35.0 520.7 35.0L520.7 35.0Q521.1 35.0 521.4 35.2Q521.6 35.4 521.6 35.9L521.6 35.9Q521.6 36.3 521.4 36.6Q521.1 36.8 520.7 36.8ZM526.7 39.7L522.9 39.7L522.9 38.4L526.7 38.4L526.7 39.7ZM531.1 38.5L530.0 38.5L530.0 40.1Q530.0 40.4 530.1 40.5Q530.2 40.6 530.4 40.6L530.4 40.6Q530.5 40.6 530.7 40.6Q530.8 40.6 530.9 40.5L530.9 40.5L531.2 41.8Q530.9 41.9 530.5 42.0Q530.2 42.1 529.9 42.1L529.9 42.1Q529.6 42.1 529.3 42.0Q529.0 41.9 528.8 41.8Q528.6 41.6 528.5 41.3Q528.4 41.0 528.4 40.6L528.4 40.6L528.4 38.5L527.8 38.5L527.8 37.3L528.4 37.3L528.4 36.5L530.0 36.2L530.0 37.3L531.1 37.3L531.1 38.5ZM533.6 42.1L533.6 42.1Q533.0 42.1 532.6 41.7Q532.3 41.4 532.3 40.8L532.3 40.8Q532.3 39.5 534.2 39.3L534.2 39.3L534.8 39.2L534.8 38.9Q534.8 38.7 534.7 38.5Q534.5 38.4 534.1 38.4L534.1 38.4Q533.8 38.4 533.4 38.5Q533.0 38.6 532.8 38.8L532.8 38.8L532.5 37.6Q532.9 37.4 533.4 37.3Q533.9 37.2 534.5 37.2L534.5 37.2Q535.5 37.2 536.0 37.6Q536.4 38.0 536.4 38.8L536.4 38.8Q536.4 39.2 536.4 39.7Q536.4 40.1 536.4 40.5L536.4 40.5L536.4 40.8Q536.4 41.2 536.4 41.5Q536.5 41.8 536.5 42L536.5 42L534.9 42Q534.9 41.9 534.9 41.7Q534.8 41.6 534.8 41.5L534.8 41.5Q534.4 42.1 533.6 42.1ZM534.3 40.9L534.3 40.9Q534.5 40.9 534.6 40.8Q534.7 40.8 534.8 40.7L534.8 40.7L534.8 40.0L534.4 40.0Q534.2 40.1 534.0 40.2Q533.9 40.3 533.9 40.5L533.9 40.5Q533.9 40.7 534.0 40.8Q534.1 40.9 534.3 40.9ZM539.5 42L537.8 42L537.8 35.2L539.5 35.2L539.5 38.9L539.8 38.9L540.5 37.3L542.2 37.3L541.2 39.5L542.3 42L540.6 42L539.9 40.2L539.5 40.2L539.5 42ZM545.8 42.1L545.8 42.1Q544.6 42.1 543.9 41.5Q543.3 40.9 543.3 39.7L543.3 39.7Q543.3 39.2 543.4 38.7Q543.6 38.2 543.9 37.9Q544.2 37.5 544.6 37.4Q545.1 37.2 545.6 37.2L545.6 37.2Q546.1 37.2 546.5 37.4Q546.8 37.5 547.1 37.8Q547.4 38.0 547.5 38.4Q547.6 38.8 547.7 39.3L547.7 39.3Q547.7 39.5 547.7 39.7Q547.7 39.9 547.6 40.0L547.6 40.0L545.0 40.0Q545.0 40.5 545.3 40.7Q545.5 40.9 546.1 40.9L546.1 40.9Q546.4 40.9 546.6 40.8Q546.9 40.8 547.2 40.7L547.2 40.7L547.5 41.8Q547.2 41.9 546.8 42.0Q546.4 42.1 545.8 42.1ZM545.0 39.2L546.0 39.2Q546.0 38.8 545.9 38.5Q545.8 38.3 545.5 38.3L545.5 38.3Q545.3 38.3 545.1 38.5Q545.0 38.8 545.0 39.2L545.0 39.2ZM551.0 42.1L551.0 42.1Q550.5 42.1 550.1 41.9Q549.7 41.8 549.4 41.4Q549.1 41.1 548.9 40.7Q548.7 40.2 548.7 39.7L548.7 39.7Q548.7 39.1 548.9 38.6Q549.1 38.2 549.4 37.8Q549.7 37.5 550.1 37.4Q550.5 37.2 551.1 37.2L551.1 37.2Q551.6 37.2 552.0 37.4Q552.4 37.5 552.7 37.8Q553.0 38.1 553.2 38.6Q553.4 39.0 553.4 39.6L553.4 39.6Q553.4 40.1 553.2 40.6Q553.0 41.1 552.7 41.4Q552.4 41.7 552.0 41.9Q551.6 42.1 551.0 42.1ZM551.1 40.7L551.1 40.7Q551.7 40.7 551.7 39.6L551.7 39.6Q551.7 38.6 551.1 38.6L551.1 38.6Q550.5 38.6 550.5 39.7L550.5 39.7Q550.5 40.7 551.1 40.7ZM556.6 42.0L554.9 42.0L554.9 38.5L554.4 38.5L554.4 37.3L554.9 37.3L554.9 37.0Q554.9 36.5 555.0 36.2Q555.2 35.8 555.4 35.6Q555.6 35.3 556.0 35.2Q556.3 35.1 556.7 35.1L556.7 35.1Q557.1 35.1 557.4 35.1Q557.6 35.2 557.9 35.3L557.9 35.3L557.7 36.7Q557.6 36.5 557.1 36.5L557.1 36.5Q556.9 36.5 556.7 36.6Q556.6 36.8 556.6 37.1L556.6 37.1L556.6 37.3L557.5 37.3L557.5 38.5L556.6 38.5L556.6 42.0ZM560.7 42.0L559.0 42.0L559.0 38.5L558.5 38.5L558.5 37.3L559.0 37.3L559.0 37.0Q559.0 36.5 559.1 36.2Q559.3 35.8 559.5 35.6Q559.7 35.3 560.1 35.2Q560.4 35.1 560.8 35.1L560.8 35.1Q561.2 35.1 561.5 35.1Q561.7 35.2 562.0 35.3L562.0 35.3L561.8 36.7Q561.7 36.5 561.2 36.5L561.2 36.5Q561.0 36.5 560.8 36.6Q560.7 36.8 560.7 37.1L560.7 37.1L560.7 37.3L561.6 37.3L561.6 38.5L560.7 38.5L560.7 42.0ZM563.8 42.8L563.8 42.8Q563.3 42.8 563.1 42.5Q562.8 42.2 562.8 41.8L562.8 41.8Q562.8 41.4 563.1 41.1Q563.3 40.8 563.8 40.8L563.8 40.8Q564.2 40.8 564.5 41.1Q564.8 41.4 564.8 41.8L564.8 41.8Q564.8 42.2 564.5 42.5Q564.2 42.8 563.8 42.8ZM567.5 42.1L567.5 42.1Q566.8 42.1 566.4 41.5Q566.0 40.8 565.9 39.7L565.9 39.7Q565.9 39.1 566.1 38.7Q566.2 38.2 566.4 37.9Q566.6 37.5 566.9 37.4Q567.3 37.2 567.7 37.2L567.7 37.2Q568.4 37.2 568.8 37.7L568.8 37.7L568.8 35.2L570.4 35.2L570.4 42L568.9 42L568.9 41.3Q568.6 41.7 568.3 41.9Q567.9 42.1 567.5 42.1ZM568.3 40.6L568.3 40.6Q568.4 40.6 568.5 40.6Q568.7 40.5 568.8 40.4L568.8 40.4L568.8 38.9Q568.6 38.6 568.3 38.6L568.3 38.6Q567.7 38.6 567.7 39.6L567.7 39.6Q567.7 40.2 567.8 40.4Q568.0 40.6 568.3 40.6ZM574.2 42.1L574.2 42.1Q573.0 42.1 572.3 41.5Q571.7 40.9 571.7 39.7L571.7 39.7Q571.7 39.2 571.8 38.7Q572.0 38.2 572.3 37.9Q572.6 37.5 573.0 37.4Q573.5 37.2 574.0 37.2L574.0 37.2Q574.5 37.2 574.9 37.4Q575.3 37.5 575.5 37.8Q575.8 38.0 575.9 38.4Q576.1 38.8 576.1 39.3L576.1 39.3Q576.1 39.5 576.1 39.7Q576.1 39.9 576.1 40.0L576.1 40.0L573.4 40.0Q573.4 40.5 573.7 40.7Q574.0 40.9 574.5 40.9L574.5 40.9Q574.8 40.9 575.1 40.8Q575.3 40.8 575.6 40.7L575.6 40.7L575.9 41.8Q575.6 41.9 575.2 42.0Q574.8 42.1 574.2 42.1ZM573.4 39.2L574.4 39.2Q574.4 38.8 574.3 38.5Q574.2 38.3 573.9 38.3L573.9 38.3Q573.7 38.3 573.5 38.5Q573.4 38.8 573.4 39.2L573.4 39.2ZM580.5 42L578.3 42L576.9 37.3L578.6 37.3L579.4 40.4L580.2 37.3L581.9 37.3L580.5 42Z "/></g></svg>